<?xml version="1.0" encoding="UTF-8"?>
<svg width="174px" height="182px" viewBox="0 0 174 182" version="1.1" xmlns="http://www.w3.org/2000/svg" xmlns:xlink="http://www.w3.org/1999/xlink">
    <!-- Generator: Sketch 51.3 (57544) - http://www.bohemiancoding.com/sketch -->
    <title>FlexLogo/Neg/FlexLogoVert</title>
    <desc>Created with Sketch.</desc>
    <defs></defs>
    <g id="FlexLogo/Neg/FlexLogoVert" stroke="none" stroke-width="1" fill="none" fill-rule="evenodd">
        <g id="Group" transform="translate(2.000000, 156.000000)" fill="#FFFFFF">
            <path d="M13.771999,6.59 L8.31599895,6.59 L8.31599895,21 L6.66599895,21 L6.66599895,6.59 L1.31999895,6.59 L1.31999895,5.05 L13.529999,5.05 L13.771999,6.59 Z M41.3319991,5.05 L36.3159991,21.066 L34.8639991,21.066 L30.0679991,7.36 L25.2939991,21.066 L23.8859991,21.066 L18.9139991,5.27 L20.5859991,4.896 L24.6999991,18.426 L29.2539991,5.05 L30.9479991,5.05 L35.5679991,18.426 L39.6159991,5.05 L41.3319991,5.05 Z M49.7739992,21 L48.1019992,21 L48.1019992,5.05 L49.7739992,5.05 L49.7739992,21 Z M65.9599993,21 L57.6879993,21 L57.6879993,5.05 L59.3379993,5.05 L59.3379993,19.46 L65.7179993,19.46 L65.9599993,21 Z M74.0279994,21 L72.3559994,21 L72.3559994,5.05 L74.0279994,5.05 L74.0279994,21 Z M96.1759995,13.014 C96.1759995,17.898 93.0959995,21.308 88.6519995,21.308 C84.2079995,21.308 81.1719995,17.92 81.1719995,13.058 C81.1719995,8.152 84.2519995,4.764 88.6959995,4.764 C93.1399995,4.764 96.1759995,8.13 96.1759995,13.014 Z M94.4379995,13.036 C94.4379995,8.988 92.1499995,6.26 88.6519995,6.26 C85.1759995,6.26 82.8879995,8.988 82.8879995,13.014 C82.8879995,17.084 85.1979995,19.79 88.6739995,19.79 C92.1719995,19.79 94.4379995,17.084 94.4379995,13.036 Z M120.386,6.59 L113.72,6.59 L113.72,12.156 L119.044,12.156 L119.286,13.674 L113.72,13.674 L113.72,21 L112.07,21 L112.07,5.05 L120.386,5.05 L120.386,6.59 Z M135.12,21 L126.848,21 L126.848,5.05 L128.498,5.05 L128.498,19.46 L134.878,19.46 L135.12,21 Z M150.228,21 L141.362,21 L141.362,5.05 L149.986,5.05 L149.986,6.59 L143.012,6.59 L143.012,11.892 L148.534,11.892 L148.776,13.432 L143.012,13.432 L143.012,19.482 L150.228,19.482 L150.228,21 Z M168.966,20.78 L167.294,21.132 L162.234,13.872 L157.35,21 L155.524,21 L161.288,12.706 L156.096,5.292 L157.746,4.94 L162.256,11.496 L166.656,5.05 L168.482,5.05 L163.202,12.662 L168.966,20.78 Z" id="TWILIO-FLEX"></path>
        </g>
        <g id="Group-2" transform="translate(25.000000, 0.000000)" fill="#FFFFFF">
            <path d="M62,0 C96.3066667,0 124,27.6933333 124,62 C124,96.3066667 96.3066667,124 62,124 C27.6933333,124 0,96.3066667 0,62 C0,27.6933333 27.6933333,0 62,0 Z M62,3 C29.3533333,3 3,29.3533333 3,62 C3,94.6466667 29.3533333,121 62,121 C94.6466667,121 121,94.6466667 121,62 C121,29.3533333 94.6466667,3 62,3 Z" id="Combined-Shape" fill-rule="nonzero"></path>
            <path d="M45.4489037,59.977879 L57.8808296,72.4132123 C58.1497309,72.6823975 58.3010765,73.0472741 58.3010765,73.4277679 L58.3010765,86.5624716 C58.3010765,87.8405333 56.7558173,88.480842 55.8522864,87.5767432 L43.4200765,75.1414099 C43.1511753,74.8725086 43.0001136,74.5073481 43.0001136,74.1268543 L43.0001136,60.9924346 C43.0001136,59.7140889 44.5450889,59.0737802 45.4489037,59.977879 Z M44.4478642,42 L75.131,42 C75.5112099,42 75.8760864,42.1510617 76.1452716,42.4202469 L88.5771975,54.8555802 C89.4810123,55.759679 88.8409877,57.3052222 87.5629259,57.3052222 L58.300963,57.3052222 C57.5269136,57.3072099 56.9002346,57.9353086 56.9002346,58.7102099 C56.9002346,59.4848272 57.5269136,60.1132099 58.300963,60.1151975 L67.8036543,60.1151975 C68.1841481,60.1151975 68.5487407,60.2662593 68.817642,60.5351605 L81.2495679,72.9707778 C82.1533827,73.8745926 81.513358,75.4201358 80.2352963,75.4201358 L65.5729383,75.4201358 C65.1927284,75.4201358 64.8275679,75.2690741 64.5586667,74.9998889 L43.4202469,53.8980988 C43.1513457,53.6291975 43,53.264321 43,52.8835432 L43,43.4484321 C43,42.6482593 43.6485432,42 44.4478642,42 Z" id="Master-logo"></path>
        </g>
    </g>
</svg>